<?xml version="1.0" encoding="UTF-8" standalone="no"?>
<svg width="51px" height="51px" viewBox="0 0 51 51" version="1.1" xmlns="http://www.w3.org/2000/svg" xmlns:xlink="http://www.w3.org/1999/xlink">
    <g id="mobile-listener" stroke="none" stroke-width="1" fill="none" fill-rule="evenodd" fill-opacity="0.8028476">
        <g id="iPhone-6-Copy-9" transform="translate(-85.000000, -231.000000)" fill="#FFFFFF">
            <g id="noun_183729_cc" transform="translate(85.000000, 231.000000)">
                <g id="Group">
                    <g id="Shape">
                        <path d="M25.4095349,3.62993356 C37.4384087,3.62993356 47.1891363,13.3806611 47.1891363,25.4095349 C47.1891363,37.4384087 37.4384087,47.1891363 25.4095349,47.1891363 C13.3806611,47.1891363 3.62993356,37.4384087 3.62993356,25.4095349 C3.62993356,13.3806611 13.3806611,3.62993356 25.4095349,3.62993356 L25.4095349,3.62993356 Z M25.4095349,0 C11.3987174,0 0,11.3987174 0,25.4095349 C0,39.4203525 11.3987174,50.8190698 25.4095349,50.8190698 C39.4203525,50.8190698 50.8190698,39.4203525 50.8190698,25.4095349 C50.8190698,11.3987174 39.4203525,0 25.4095349,0 L25.4095349,0 L25.4095349,0 Z"></path>
                        <path d="M37.9262718,32.779752 C35.3453891,37.1843134 30.6388172,39.9292692 25.4095349,39.9292692 C20.1802526,39.9292692 15.4736808,37.1843134 12.892798,32.779752 L37.9262718,32.779752 L37.9262718,32.779752 Z M40.2414434,29.1498185 L10.5769004,29.1498185 C9.03708259,29.1498185 7.97786798,30.70706 8.54921952,32.1372538 C11.2223026,38.8301253 17.7627169,43.5592027 25.4095349,43.5592027 C33.056353,43.5592027 39.5967672,38.8301253 42.2691243,32.1372538 C42.8404759,30.70706 41.7812613,29.1498185 40.2414434,29.1498185 L40.2414434,29.1498185 L40.2414434,29.1498185 Z"></path>
                        <g transform="translate(10.889801, 15.245721)">
                            <path d="M10.8041342,1.88320953 C10.545683,1.23562938 10.0273285,0.690413363 9.31005359,0.352829542 C8.67626719,0.0544490034 7.99383968,0.0188756545 7.37239506,0.201098319 C6.75167642,0.382594997 6.19339264,0.879895895 5.80934567,1.45415138 C5.4252987,0.879895895 4.86701492,0.382594997 4.24629628,0.201098319 C3.62557764,0.0188756545 2.94242414,0.0544490034 2.30863774,0.352829542 C1.59136287,0.690413363 1.07300836,1.23562938 0.814557091,1.88320953 C0.556105821,2.53078968 0.554653848,3.2836379 0.880621881,4.03140421 C1.36122508,5.13490401 3.51159773,7.26349705 4.80820999,8.49985242 C5.37012371,9.03563062 6.24856763,9.03563062 6.81120733,8.49985242 C8.1078196,7.26349705 10.2589182,5.13490401 10.7395214,4.03140421 C11.0640375,3.28291191 11.0633115,2.53078968 10.8041342,1.88320953 L10.8041342,1.88320953 Z"></path>
                            <path d="M28.2249114,1.88320953 C27.9664601,1.23562938 27.4481056,0.690413363 26.7308307,0.352829542 C26.0970443,0.0544490034 25.4146168,0.0188756545 24.7931722,0.201098319 C24.1724536,0.382594997 23.6141698,0.879895895 23.2301228,1.45415138 C22.8460758,0.879895895 22.2877921,0.382594997 21.6670734,0.201098319 C21.0463548,0.0188756545 20.3632013,0.0544490034 19.7294149,0.352829542 C19.01214,0.690413363 18.4937855,1.23562938 18.2353342,1.88320953 C17.976883,2.53078968 17.975431,3.2836379 18.301399,4.03140421 C18.7820022,5.13490401 20.9323749,7.26349705 22.2289871,8.49985242 C22.7909008,9.03563062 23.6693448,9.03563062 24.2319845,8.49985242 C25.5285967,7.26349705 27.6796954,5.13490401 28.1602986,4.03140421 C28.4848146,3.28291191 28.4840886,2.53078968 28.2249114,1.88320953 L28.2249114,1.88320953 Z"></path>
                        </g>
                    </g>
                </g>
            </g>
        </g>
    </g>
</svg>